<svg width="180" height="180" viewBox="0 0 180 180" fill="none" xmlns="http://www.w3.org/2000/svg">
<path d="M154.217 34.0396L105.793 6.28575C95.8173 0.571417 83.5227 0.571417 73.5466 6.28575L25.1234 34.0396C15.1473 39.7539 9 50.3116 9 61.7615V117.258C9 128.687 15.1473 139.266 25.1234 144.98L73.5466 172.734C83.5227 178.449 95.8173 178.449 105.793 172.734L154.217 144.98C164.193 139.266 170.34 128.708 170.34 117.258V61.7615C170.34 50.3328 164.193 39.7539 154.217 34.0396Z" fill="url(#paint0_linear_260_161)"/>
<path d="M154.217 34.0396L105.793 6.28575C95.8173 0.571417 83.5227 0.571417 73.5466 6.28575L25.1234 34.0396C15.1473 39.7539 9 50.3116 9 61.7615V117.258C9 128.687 15.1473 139.266 25.1234 144.98L73.5466 172.734C83.5227 178.449 95.8173 178.449 105.793 172.734L154.217 144.98C164.193 139.266 170.34 128.708 170.34 117.258V61.7615C170.34 50.3328 164.193 39.7539 154.217 34.0396Z" stroke="url(#paint1_linear_260_161)"/>
<path d="M91.8638 129H87.3706L81.3549 147.452H85.7732L86.8967 143.531H92.5373L93.6858 147.452H98.129L91.8638 129ZM87.8207 140.16L89.6427 133.051L91.5645 140.16H87.8207Z" fill="#7C7D7F"/>
<path d="M101.236 151.651L78 155L78.9275 152.859L101.484 150.806L101.236 151.651Z" fill="#7C7D7F"/>
<defs>
<linearGradient id="paint0_linear_260_161" x1="36" y1="44" x2="154.268" y2="176.267" gradientUnits="userSpaceOnUse">
<stop stop-color="#DCDFE3"/>
<stop offset="0.321008" stop-color="#C1C4C8"/>
<stop offset="0.710316" stop-color="#999B9F"/>
<stop offset="1" stop-color="#818387"/>
</linearGradient>
<linearGradient id="paint1_linear_260_161" x1="23.4792" y1="12.9388" x2="159.72" y2="156.294" gradientUnits="userSpaceOnUse">
<stop stop-color="#DADDE1"/>
<stop offset="0.45" stop-color="#A2A4A8"/>
<stop offset="1" stop-color="#8D8F93"/>
</linearGradient>
</defs>
</svg>
